<?xml version="1.0" encoding="utf-8"?>
<!-- Generator: Adobe Illustrator 23.1.1, SVG Export Plug-In . SVG Version: 6.00 Build 0)  -->
<svg version="1.1" id="Layer_1" xmlns="http://www.w3.org/2000/svg" xmlns:xlink="http://www.w3.org/1999/xlink" x="0px" y="0px"
	 viewBox="0 0 1000 1000" style="enable-background:new 0 0 1000 1000;" xml:space="preserve">
<style type="text/css">
	.st0{fill:#FFFFFF;}
	.st1{fill:#212721;}
</style>
<g>
	<path class="st0" d="M727.12,743.52H272.15c-8.92,0-16.18-7.26-16.18-16.18V272.36c0-8.92,7.26-16.18,16.18-16.18h454.97
		c8.92,0,16.18,7.26,16.18,16.18v454.97C743.3,736.26,736.04,743.52,727.12,743.52z M279.38,720.1h440.5V279.6h-440.5V720.1z"/>
	<g>
		<g>
			<path class="st0" d="M414.58,409.11h24.07c0,27.32-17.05,44.04-44.46,44.04c-29.83,0-47.38-18.63-47.38-50.39v-24.65
				c0-31.75,17.55-50.39,47.38-50.39c27.74,0,44.21,16.63,44.37,45.12H414.5c-0.25-14.46-8.44-23.82-20.72-23.82
				c-14.62,0-22.31,10.03-22.31,29.08v24.65c0,19.14,7.69,29.08,22.64,29.08C406.56,431.84,414.33,423.15,414.58,409.11z"/>
			<path class="st0" d="M516.95,450.73v-50.97h-39.44v50.97h-23.31V330.14h23.31v49.13h39.44v-49.13h23.31v120.58H516.95z"/>
			<path class="st0" d="M620.06,421.23h-35.85l-7.69,29.5H552.8l36.18-120.58h28.08l36.18,120.58h-25.65L620.06,421.23z
				 M615.3,402.67l-12.53-48.88h-1.09l-12.7,48.88H615.3z"/>
		</g>
	</g>
	<g>
		<g>
			<path class="st0" d="M414.58,639.88h24.07c0,27.32-17.05,44.04-44.46,44.04c-29.83,0-47.38-18.63-47.38-50.39v-24.65
				c0-31.75,17.55-50.39,47.38-50.39c27.74,0,44.21,16.63,44.37,45.12H414.5c-0.25-14.45-8.44-23.81-20.72-23.81
				c-14.62,0-22.31,10.03-22.31,29.08v24.65c0,19.14,7.69,29.08,22.64,29.08C406.56,662.6,414.33,653.91,414.58,639.88z"/>
			<path class="st0" d="M516.95,681.49v-50.97h-39.44v50.97h-23.31V560.91h23.31v49.13h39.44v-49.13h23.31v120.58H516.95z"/>
			<path class="st0" d="M620.06,651.99h-35.85l-7.69,29.49H552.8l36.18-120.58h28.08l36.18,120.58h-25.65L620.06,651.99z
				 M615.3,633.44l-12.53-48.88h-1.09l-12.7,48.88H615.3z"/>
		</g>
	</g>
	<rect x="329.8" y="489.96" class="st0" width="339.67" height="23.39"/>
</g>
</svg>
